<svg width="1345" height="88" viewBox="0 0 1345 88" fill="none" xmlns="http://www.w3.org/2000/svg">
<path d="M572.682 14.112C571.777 14.112 571.053 13.8413 570.512 13.3C569.971 12.7587 569.7 12.0307 569.7 11.116H571.002C571.002 11.6667 571.156 12.1053 571.464 12.432C571.781 12.7587 572.197 12.922 572.71 12.922H574.264C574.777 12.922 575.188 12.8147 575.496 12.6C575.804 12.376 575.958 12.082 575.958 11.718V10.962C575.958 10.6727 575.846 10.43 575.622 10.234C575.407 10.038 575.099 9.90733 574.698 9.842L572.15 9.422C571.403 9.30067 570.825 9.044 570.414 8.652C570.013 8.26 569.812 7.77 569.812 7.182V6.412C569.812 5.712 570.078 5.152 570.61 4.732C571.151 4.30267 571.861 4.088 572.738 4.088H574.32C574.871 4.088 575.356 4.20467 575.776 4.438C576.205 4.662 576.537 4.984 576.77 5.404C577.003 5.81467 577.12 6.29067 577.12 6.832H575.804C575.804 6.36533 575.669 5.992 575.398 5.712C575.127 5.42267 574.768 5.278 574.32 5.278H572.738C572.262 5.278 571.875 5.38533 571.576 5.6C571.287 5.80533 571.142 6.09 571.142 6.454V7.084C571.142 7.38267 571.245 7.63 571.45 7.826C571.665 8.022 571.968 8.15733 572.36 8.232L574.88 8.666C575.655 8.79667 576.247 9.05333 576.658 9.436C577.078 9.80933 577.288 10.2807 577.288 10.85V11.76C577.288 12.4693 577.013 13.0387 576.462 13.468C575.921 13.8973 575.197 14.112 574.292 14.112H572.682ZM584.508 14.112C583.855 14.112 583.276 13.9627 582.772 13.664C582.268 13.3653 581.876 12.9453 581.596 12.404C581.325 11.8533 581.19 11.2187 581.19 10.5V7.7C581.19 6.98133 581.33 6.35133 581.61 5.81C581.89 5.25933 582.282 4.83467 582.786 4.536C583.299 4.23733 583.892 4.088 584.564 4.088H586.048C586.683 4.088 587.243 4.228 587.728 4.508C588.223 4.77867 588.601 5.16133 588.862 5.656C589.133 6.15067 589.268 6.72 589.268 7.364H587.966C587.966 6.73867 587.789 6.23467 587.434 5.852C587.089 5.46933 586.627 5.278 586.048 5.278H584.564C583.957 5.278 583.463 5.502 583.08 5.95C582.707 6.398 582.52 6.99067 582.52 7.728V10.472C582.52 11.2093 582.702 11.802 583.066 12.25C583.43 12.698 583.911 12.922 584.508 12.922H586.02C586.617 12.922 587.093 12.712 587.448 12.292C587.812 11.8627 587.994 11.3027 587.994 10.612H589.296C589.296 11.3027 589.161 11.914 588.89 12.446C588.619 12.978 588.237 13.3887 587.742 13.678C587.247 13.9673 586.673 14.112 586.02 14.112H584.508ZM593.355 4.2H598.269C599.025 4.2 599.632 4.41467 600.089 4.844C600.556 5.264 600.789 5.81933 600.789 6.51V7.518C600.789 8.00333 600.635 8.43267 600.327 8.806C600.029 9.17933 599.618 9.45 599.095 9.618V9.632C599.646 9.95867 600.057 10.556 600.327 11.424L601.097 14H599.725L598.969 11.48C598.839 11.0413 598.629 10.696 598.339 10.444C598.059 10.192 597.737 10.066 597.373 10.066H594.685V14H593.355V4.2ZM597.905 8.89C598.372 8.89 598.745 8.764 599.025 8.512C599.315 8.26 599.459 7.92867 599.459 7.518V6.496C599.459 6.16 599.347 5.88933 599.123 5.684C598.899 5.47867 598.605 5.376 598.241 5.376H594.685V8.89H597.905ZM608.199 14.112C607.518 14.112 606.916 13.9627 606.393 13.664C605.88 13.3653 605.478 12.9453 605.189 12.404C604.909 11.8627 604.769 11.2327 604.769 10.514V7.686C604.769 6.96733 604.909 6.33733 605.189 5.796C605.478 5.25467 605.884 4.83467 606.407 4.536C606.93 4.23733 607.532 4.088 608.213 4.088H609.697C610.378 4.088 610.976 4.23733 611.489 4.536C612.012 4.83467 612.413 5.25467 612.693 5.796C612.982 6.33733 613.127 6.96733 613.127 7.686V10.514C613.127 11.2327 612.982 11.8627 612.693 12.404C612.413 12.9453 612.012 13.3653 611.489 13.664C610.966 13.9627 610.369 14.112 609.697 14.112H608.199ZM609.669 12.922C610.304 12.922 610.817 12.7027 611.209 12.264C611.601 11.816 611.797 11.2233 611.797 10.486V7.714C611.797 6.97667 611.601 6.38867 611.209 5.95C610.817 5.502 610.304 5.278 609.669 5.278H608.227C607.592 5.278 607.079 5.502 606.687 5.95C606.295 6.38867 606.099 6.97667 606.099 7.714V10.486C606.099 11.2233 606.29 11.816 606.673 12.264C607.065 12.7027 607.578 12.922 608.213 12.922H609.669ZM618.504 14C618.178 14 617.916 13.9067 617.72 13.72C617.534 13.5333 617.44 13.2813 617.44 12.964V4.2H618.77V12.824H624.09V14H618.504ZM628.995 14C628.668 14 628.407 13.9067 628.211 13.72C628.024 13.5333 627.931 13.2813 627.931 12.964V4.2H629.261V12.824H634.581V14H628.995ZM647.109 5.362H644.001V4.2H651.547V5.362H648.439V14H647.109V5.362ZM658.137 14.112C657.456 14.112 656.854 13.9627 656.331 13.664C655.818 13.3653 655.416 12.9453 655.127 12.404C654.847 11.8627 654.707 11.2327 654.707 10.514V7.686C654.707 6.96733 654.847 6.33733 655.127 5.796C655.416 5.25467 655.822 4.83467 656.345 4.536C656.868 4.23733 657.47 4.088 658.151 4.088H659.635C660.316 4.088 660.914 4.23733 661.427 4.536C661.95 4.83467 662.351 5.25467 662.631 5.796C662.92 6.33733 663.065 6.96733 663.065 7.686V10.514C663.065 11.2327 662.92 11.8627 662.631 12.404C662.351 12.9453 661.95 13.3653 661.427 13.664C660.904 13.9627 660.307 14.112 659.635 14.112H658.137ZM659.607 12.922C660.242 12.922 660.755 12.7027 661.147 12.264C661.539 11.816 661.735 11.2233 661.735 10.486V7.714C661.735 6.97667 661.539 6.38867 661.147 5.95C660.755 5.502 660.242 5.278 659.607 5.278H658.165C657.53 5.278 657.017 5.502 656.625 5.95C656.233 6.38867 656.037 6.97667 656.037 7.714V10.486C656.037 11.2233 656.228 11.816 656.611 12.264C657.003 12.7027 657.516 12.922 658.151 12.922H659.607ZM674.722 14C674.395 14 674.134 13.9067 673.938 13.72C673.751 13.5333 673.658 13.2767 673.658 12.95V4.2H680.532V5.362H674.988V8.414H680.112V9.562H674.988V12.838H680.532V14H674.722ZM687.271 9.002L683.953 4.2H685.465L688.027 7.91L690.589 4.2H692.087L688.769 9.002L692.227 14H690.715L688.027 10.094L685.325 14H683.813L687.271 9.002ZM695.924 4.2H700.81C701.585 4.2 702.206 4.41933 702.672 4.858C703.148 5.28733 703.386 5.86133 703.386 6.58V7.98C703.386 8.736 703.134 9.34733 702.63 9.814C702.136 10.2713 701.478 10.5 700.656 10.5H697.254V14H695.924V4.2ZM700.628 9.324C701.058 9.324 701.403 9.198 701.664 8.946C701.926 8.68467 702.056 8.344 702.056 7.924V6.594C702.056 6.23 701.94 5.936 701.706 5.712C701.473 5.488 701.165 5.376 700.782 5.376H697.254V9.324H700.628ZM708.368 14C708.041 14 707.78 13.9067 707.584 13.72C707.397 13.5333 707.304 13.2813 707.304 12.964V4.2H708.634V12.824H713.954V14H708.368ZM720.575 14.112C719.894 14.112 719.292 13.9627 718.769 13.664C718.256 13.3653 717.855 12.9453 717.565 12.404C717.285 11.8627 717.145 11.2327 717.145 10.514V7.686C717.145 6.96733 717.285 6.33733 717.565 5.796C717.855 5.25467 718.261 4.83467 718.783 4.536C719.306 4.23733 719.908 4.088 720.589 4.088H722.073C722.755 4.088 723.352 4.23733 723.865 4.536C724.388 4.83467 724.789 5.25467 725.069 5.796C725.359 6.33733 725.503 6.96733 725.503 7.686V10.514C725.503 11.2327 725.359 11.8627 725.069 12.404C724.789 12.9453 724.388 13.3653 723.865 13.664C723.343 13.9627 722.745 14.112 722.073 14.112H720.575ZM722.045 12.922C722.68 12.922 723.193 12.7027 723.585 12.264C723.977 11.816 724.173 11.2233 724.173 10.486V7.714C724.173 6.97667 723.977 6.38867 723.585 5.95C723.193 5.502 722.68 5.278 722.045 5.278H720.603C719.969 5.278 719.455 5.502 719.063 5.95C718.671 6.38867 718.475 6.97667 718.475 7.714V10.486C718.475 11.2233 718.667 11.816 719.049 12.264C719.441 12.7027 719.955 12.922 720.589 12.922H722.045ZM729.816 4.2H734.73C735.486 4.2 736.093 4.41467 736.55 4.844C737.017 5.264 737.25 5.81933 737.25 6.51V7.518C737.25 8.00333 737.096 8.43267 736.788 8.806C736.49 9.17933 736.079 9.45 735.556 9.618V9.632C736.107 9.95867 736.518 10.556 736.788 11.424L737.558 14H736.186L735.43 11.48C735.3 11.0413 735.09 10.696 734.8 10.444C734.52 10.192 734.198 10.066 733.834 10.066H731.146V14H729.816V4.2ZM734.366 8.89C734.833 8.89 735.206 8.764 735.486 8.512C735.776 8.26 735.92 7.92867 735.92 7.518V6.496C735.92 6.16 735.808 5.88933 735.584 5.684C735.36 5.47867 735.066 5.376 734.702 5.376H731.146V8.89H734.366ZM742.629 14C742.302 14 742.041 13.9067 741.845 13.72C741.658 13.5333 741.565 13.2767 741.565 12.95V4.2H748.439V5.362H742.895V8.414H748.019V9.562H742.895V12.838H748.439V14H742.629Z" fill="#F7F6DA"/>
<g filter="url(#filter0_b_150_3508)">
<rect x="647" y="38" width="26" height="50" rx="13" fill="white" fill-opacity="0.2"/>
<rect x="647.25" y="38.25" width="25.5" height="49.5" rx="12.75" stroke="white" stroke-width="0.5"/>
</g>
<circle cx="660" cy="49" r="5" fill="white"/>
<g clip-path="url(#clip0_150_3508)">
<path d="M20 83C31.0457 83 40 74.0457 40 63C40 51.9543 31.0457 43 20 43C8.95431 43 0 51.9543 0 63C0 74.0457 8.95431 83 20 83Z" fill="#C1D7D2"/>
<path d="M9.86746 63.672L9.95386 63.5364L15.1563 55.3972C15.1736 55.3702 15.1978 55.3484 15.2265 55.3341C15.2551 55.3198 15.2871 55.3134 15.319 55.3158C15.351 55.3181 15.3817 55.329 15.408 55.3474C15.4342 55.3657 15.4551 55.3908 15.4683 55.42C16.3375 57.368 17.0875 59.7904 16.7363 61.2988C16.5863 61.9192 16.1755 62.7596 15.7131 63.5364C15.6531 63.6496 15.5875 63.7604 15.5179 63.8672C15.5015 63.8914 15.4795 63.9112 15.4537 63.9248C15.4278 63.9384 15.399 63.9454 15.3699 63.9452H10.0195C9.87546 63.9452 9.79146 63.7892 9.86746 63.672Z" fill="#213D6A"/>
<path d="M33.058 65.1844V66.4724C33.058 66.5468 33.0128 66.6124 32.9472 66.6412C32.5444 66.814 31.1656 67.4468 30.5924 68.244C29.1292 70.28 28.0116 73.192 25.5128 73.192H15.0888C11.3944 73.192 8.40039 70.188 8.40039 66.4808V66.362C8.40039 66.2632 8.48039 66.1832 8.57919 66.1832H14.3904C14.5052 66.1832 14.5896 66.29 14.5792 66.4032C14.5383 66.7873 14.6104 67.1751 14.7868 67.5188C14.9558 67.8606 15.2169 68.1483 15.5408 68.3495C15.8647 68.5506 16.2383 68.6572 16.6196 68.6572H19.4964V66.4112H16.6524C16.6191 66.4108 16.5865 66.4013 16.5582 66.3838C16.5299 66.3663 16.5069 66.3414 16.4917 66.3117C16.4765 66.2821 16.4696 66.2489 16.4719 66.2157C16.4741 66.1825 16.4853 66.1505 16.5044 66.1232C16.5356 66.076 16.5704 66.0272 16.6072 65.9712C16.9783 65.4371 17.324 64.8858 17.6432 64.3192C17.904 63.8632 18.1568 63.376 18.36 62.8872C18.4012 62.7988 18.434 62.7084 18.4668 62.62C18.5224 62.464 18.58 62.318 18.6212 62.172C18.662 62.0488 18.6952 61.9192 18.728 61.798C18.8244 61.3828 18.8656 60.9432 18.8656 60.4872C18.8656 60.3084 18.8576 60.1212 18.8408 59.9424C18.8328 59.7472 18.808 59.552 18.7832 59.3568C18.7641 59.1817 18.7374 59.0076 18.7032 58.8348C18.6604 58.5722 18.6056 58.3117 18.5392 58.054L18.5164 57.9556C18.4668 57.7768 18.426 57.6064 18.3684 57.4276C18.2094 56.8803 18.0269 56.3401 17.8216 55.8084C17.7496 55.6048 17.6676 55.4096 17.5856 55.2144C17.4644 54.9204 17.3408 54.6536 17.228 54.4008C17.1704 54.2856 17.1212 54.1808 17.072 54.074C17.0171 53.9538 16.9602 53.8346 16.9012 53.7164C16.86 53.6284 16.8128 53.546 16.78 53.4636L16.4284 52.8144C16.4174 52.7948 16.4124 52.7723 16.4141 52.7498C16.4158 52.7274 16.4241 52.7059 16.4379 52.6882C16.4518 52.6704 16.4705 52.6571 16.4919 52.65C16.5133 52.6428 16.5362 52.6421 16.558 52.648L18.7568 53.244H18.7628C18.7668 53.244 18.7692 53.246 18.7708 53.246L19.0608 53.326L19.3792 53.4164L19.4964 53.4492V52.1424C19.4964 51.5116 20.002 51 20.6264 51C20.9388 51 21.2224 51.1272 21.426 51.3348C21.6292 51.5428 21.7568 51.826 21.7568 52.1428V54.0824L21.9908 54.148C22.01 54.154 22.0281 54.163 22.0444 54.1748C22.102 54.218 22.1844 54.2816 22.2888 54.3596C22.3712 54.4252 22.4596 54.5056 22.5664 54.5876C22.778 54.7584 23.0304 54.978 23.308 55.2308C23.382 55.2948 23.454 55.3604 23.52 55.426C23.9182 55.7925 24.2987 56.1779 24.66 56.5808C24.7672 56.702 24.872 56.8252 24.9788 56.9548C25.0856 57.0864 25.1988 57.2156 25.2972 57.3452C25.4268 57.518 25.5664 57.6968 25.6876 57.8836C25.7452 57.972 25.8108 58.0624 25.8664 58.1508C26.0224 58.3868 26.16 58.6316 26.2916 58.876C26.3472 58.9892 26.4048 59.1124 26.454 59.2336C26.6 59.5604 26.7148 59.8936 26.7888 60.226C26.8116 60.298 26.828 60.376 26.836 60.446V60.4624C26.8608 60.5612 26.8692 60.666 26.8772 60.7728C26.9113 61.1155 26.8919 61.4613 26.8196 61.798C26.7878 61.9435 26.7473 62.0869 26.6984 62.2276C26.6492 62.3676 26.6 62.5132 26.536 62.6508C26.4122 62.942 26.2645 63.2224 26.0944 63.4892C26.0388 63.5876 25.9732 63.6924 25.9072 63.7912C25.8352 63.896 25.7616 63.9948 25.6956 64.0912C25.6052 64.2144 25.5088 64.344 25.41 64.4592C25.322 64.5804 25.2312 64.7016 25.1328 64.8084C25.0008 64.9662 24.8651 65.1209 24.726 65.2724C24.6436 65.3692 24.5552 65.468 24.4648 65.5564C24.3768 65.6548 24.286 65.7432 24.204 65.8256C24.0664 65.9632 23.9512 66.07 23.8548 66.1584L23.6288 66.366C23.5952 66.3952 23.5521 66.4113 23.5076 66.4112H21.7564V68.6572H23.9592C24.4505 68.657 24.9256 68.4812 25.2988 68.1616C25.4284 68.0488 25.9932 67.5596 26.6612 66.822C26.6836 66.7971 26.7128 66.7793 26.7452 66.7708L32.8296 65.0116C32.8563 65.0041 32.8843 65.0029 32.9115 65.0081C32.9387 65.0133 32.9644 65.0247 32.9865 65.0414C33.0086 65.0582 33.0265 65.0798 33.0388 65.1046C33.0511 65.1294 33.058 65.1567 33.058 65.1844Z" fill="#213D6A"/>
</g>
<path d="M50.3027 63.998C50.3027 61.8366 51.1426 60.0983 52.8223 58.7832C54.502 57.4616 56.8001 56.8008 59.7168 56.8008C62.653 56.8008 64.9609 57.4616 66.6406 58.7832C68.3203 60.0983 69.1602 61.8366 69.1602 63.998C69.1602 66.1725 68.3171 67.9173 66.6309 69.2324C64.9447 70.541 62.64 71.1953 59.7168 71.1953C56.8132 71.1953 54.5182 70.541 52.832 69.2324C51.1458 67.9173 50.3027 66.1725 50.3027 63.998ZM55.5957 63.998C55.5957 65.0267 55.9701 65.8275 56.7188 66.4004C57.4674 66.9733 58.4668 67.2598 59.7168 67.2598C61.0254 67.2598 62.041 66.9668 62.7637 66.3809C63.4928 65.7949 63.8574 65.0007 63.8574 63.998C63.8574 62.9564 63.4831 62.1491 62.7344 61.5762C61.9922 61.0033 60.9863 60.7168 59.7168 60.7168C58.4212 60.7168 57.4089 61.013 56.6797 61.6055C55.957 62.1979 55.5957 62.9954 55.5957 63.998ZM70.3516 71V56.9961H80.9961C82.8385 56.9961 84.2513 57.4486 85.2344 58.3535C86.2174 59.252 86.709 60.4824 86.709 62.0449C86.709 63.6009 86.2142 64.8314 85.2246 65.7363C84.2415 66.6348 82.832 67.084 80.9961 67.084H75.5371V71H70.3516ZM75.5371 63.7441H79.7363C80.2832 63.7441 80.6934 63.6107 80.9668 63.3438C81.2402 63.0768 81.377 62.709 81.377 62.2402C81.377 61.7454 81.2272 61.3711 80.9277 61.1172C80.6348 60.8633 80.2376 60.7363 79.7363 60.7363H75.5371V63.7441ZM87.9102 71V56.9961H102.188V60.8047H93.0957V62.3574H102.188V65.6387H93.0957V67.2012H102.188V71H87.9102ZM115.205 56.9961H120.391V71H114.385L109.326 64.0762H109.072V71H103.887V56.9961H109.99L114.951 64.2617H115.205V56.9961ZM126.885 66.2637C127.002 66.6478 127.393 66.957 128.057 67.1914C128.721 67.4258 129.531 67.543 130.488 67.543C132.103 67.543 132.91 67.2142 132.91 66.5566C132.91 66.3809 132.858 66.2344 132.754 66.1172C132.656 66 132.507 65.9121 132.305 65.8535C132.109 65.7884 131.921 65.7428 131.738 65.7168C131.556 65.6908 131.318 65.6712 131.025 65.6582L127.51 65.4238C125.322 65.2741 123.805 64.8704 122.959 64.2129C122.113 63.5488 121.689 62.6374 121.689 61.4785C121.689 59.9876 122.406 58.8353 123.838 58.0215C125.27 57.2077 127.214 56.8008 129.668 56.8008C132.253 56.8008 134.287 57.2435 135.771 58.1289C137.262 59.0143 138.04 60.1992 138.105 61.6836H132.812C132.695 61.2865 132.331 60.9674 131.719 60.7266C131.113 60.4792 130.371 60.3555 129.492 60.3555C128.704 60.3555 128.089 60.4531 127.646 60.6484C127.21 60.8438 126.992 61.1009 126.992 61.4199C126.992 61.5957 127.041 61.7389 127.139 61.8496C127.236 61.9603 127.402 62.0482 127.637 62.1133C127.871 62.1719 128.105 62.2142 128.34 62.2402C128.574 62.2663 128.903 62.2923 129.326 62.3184L132.666 62.5234C134.704 62.6406 136.136 63.054 136.963 63.7637C137.796 64.4668 138.213 65.4531 138.213 66.7227C138.213 68.1224 137.578 69.2194 136.309 70.0137C135.039 70.8014 133.06 71.1953 130.371 71.1953C127.585 71.1953 125.449 70.7559 123.965 69.877C122.487 68.998 121.696 67.7936 121.592 66.2637H126.885ZM139.414 71V56.9961H153.691V60.8047H144.6V62.3574H153.691V65.6387H144.6V67.2012H153.691V71H139.414ZM167.188 71L166.611 69.2422H160.752L160.176 71H154.59L159.668 56.9961H167.695L172.773 71H167.188ZM161.855 65.8438H165.508L163.877 60.8633H163.477L161.855 65.8438Z" fill="#C1D7D2"/>
<g clip-path="url(#clip1_150_3508)">
<path d="M1088 79C1096.84 79 1104 71.8366 1104 63C1104 54.1634 1096.84 47 1088 47C1079.16 47 1072 54.1634 1072 63C1072 71.8366 1079.16 79 1088 79Z" fill="#C1D7D2"/>
<g clip-path="url(#clip2_150_3508)">
<path d="M1092.17 65.6878L1088.23 70.8883C1088.11 71.0373 1087.89 71.0372 1087.78 70.8883L1083.83 65.6878C1083.74 65.5669 1083.87 65.406 1084.01 65.4774L1087.87 67.5338C1087.95 67.5777 1088.05 67.578 1088.13 67.5352L1091.99 65.4774C1092.13 65.406 1092.26 65.5669 1092.17 65.6878Z" fill="#6E6F80"/>
<path d="M1092.17 65.6878C1092.17 65.6878 1088.22 70.8897 1088.22 70.8905C1088.15 70.9839 1088 70.9274 1088 70.8092V67.6805C1088 67.6338 1088.03 67.5908 1088.07 67.5688L1091.99 65.4774C1092.13 65.406 1092.26 65.5669 1092.17 65.6878Z" fill="#585966"/>
<path d="M1092.39 61.8079L1088.13 64.0443C1088.05 64.0877 1087.95 64.0877 1087.87 64.0443L1083.61 61.8079C1083.46 61.7294 1083.42 61.5385 1083.51 61.3988L1087.77 55.1242C1087.88 54.959 1088.12 54.9585 1088.23 55.1238L1092.49 61.3988C1092.58 61.5385 1092.54 61.7294 1092.39 61.8079Z" fill="#6E6F80"/>
<path d="M1092.39 61.8079C1092.39 61.8079 1088.13 64.0448 1088.13 64.045C1088.07 64.0762 1088 64.03 1088 63.963V55.1135C1088 55.0475 1088.07 55.0007 1088.13 55.0306C1088.17 55.0512 1088.21 55.0823 1088.23 55.1238L1092.49 61.3989C1092.58 61.5385 1092.54 61.7295 1092.39 61.8079Z" fill="#585966"/>
<path d="M1087.87 66.132L1083.2 63.6792C1083.06 63.6065 1083.01 63.4355 1083.08 63.2972C1083.16 63.1589 1083.33 63.1058 1083.46 63.1784L1088 65.562L1092.54 63.1784C1092.67 63.1056 1092.85 63.1589 1092.92 63.2972C1092.99 63.4355 1092.94 63.6065 1092.8 63.6791L1088.13 66.1319C1088.05 66.1753 1087.95 66.1753 1087.87 66.132Z" fill="#6E6F80"/>
<path d="M1088.12 55.0262C1088.06 55.0057 1088 55.0509 1088 55.1135V59.8249C1088 59.9963 1087.92 60.1576 1087.79 60.2659C1086.91 60.9797 1085.84 61.203 1084.73 61.071C1084.31 61.0211 1084.09 60.5417 1084.33 60.1921L1087.77 55.1242C1087.85 55.0035 1088 54.9706 1088.12 55.0262Z" fill="#828396"/>
<path d="M1087.47 67.5938C1087.28 68.1208 1086.85 68.5303 1086.29 68.6608C1086.18 68.6854 1086.07 68.6423 1086 68.5551L1083.83 65.6878C1083.74 65.5669 1083.87 65.406 1084.01 65.4774L1087.34 67.2513C1087.46 67.3168 1087.52 67.4626 1087.47 67.5938Z" fill="#828396"/>
</g>
</g>
<path d="M1115.28 71V60.968H1125.52V61.848H1116.34V65.4H1124.67V66.28H1116.34V70.104H1125.52V71H1115.28ZM1131.83 71V61.848H1126.95V60.968H1137.71V61.848H1132.89V71H1131.83ZM1139.7 71V60.968H1140.76V65.464H1149.25V60.968H1150.29V71H1149.25V66.392H1140.76V71H1139.7ZM1152.86 71V60.968H1163.1V61.848H1153.91V65.4H1162.25V66.28H1153.91V70.104H1163.1V71H1152.86ZM1176.15 71H1174.96L1172.44 66.728H1166.15V71H1165.09V60.968H1173.75C1175 60.968 1176.02 61.944 1176.02 63.208V64.328C1176.02 65.8 1175.08 66.728 1173.64 66.728H1173.62L1176.15 71ZM1166.15 61.848V65.848H1173.52C1174.45 65.848 1175 65.208 1175 64.424V63.272C1175 62.392 1174.31 61.848 1173.52 61.848H1166.15ZM1178.55 71V60.968H1188.79V61.848H1179.6V65.4H1187.94V66.28H1179.6V70.104H1188.79V71H1178.55ZM1193.52 71C1191.95 71 1190.78 70.056 1190.78 68.408V60.968H1191.82V68.216C1191.82 69.448 1192.59 70.12 1193.69 70.12H1198.84C1200.09 70.12 1200.75 69.448 1200.75 68.216L1200.73 60.968H1201.74V68.408C1201.74 70.056 1200.62 71 1199.05 71H1193.52ZM1216.92 60.968H1217.85V71H1216.86V62.52L1211.54 68.792H1210.65L1205.29 62.472V71H1204.3V60.968H1205.27L1211.1 67.848L1216.92 60.968Z" fill="#C1D7D2"/>
<path d="M1244.58 60.1238C1244.69 60.0927 1244.81 60.0783 1244.93 60.0828C1245.6 60.1064 1246.12 60.6712 1246.09 61.3445V68.7536C1246.09 69.5082 1245.62 69.6722 1245.17 69.6638C1244.87 69.6426 1244.58 69.5864 1244.29 69.496C1246.14 72.0315 1249.06 73.5452 1252.17 73.5878L1254.87 70.8405L1256.47 72.6609C1260.46 70.7554 1261.71 67.2369 1261.99 65.8659C1260.53 67.3834 1258.92 68.9108 1257.83 67.8525C1257.83 67.8525 1257.77 62.197 1257.77 59.8779C1257.77 56.7624 1260.7 54.4357 1260.7 54.4357C1259.09 54.7249 1257.16 55.3018 1255.12 57.3348C1254.93 57.5208 1254.76 57.7159 1254.59 57.9208C1253.71 57.2422 1252.57 57.4441 1252.57 57.4441C1253.19 57.7842 1253.8 58.7802 1253.8 59.6046V67.7068C1253.8 67.7068 1252.46 68.9001 1251.43 68.9001C1250.95 68.9047 1250.51 68.6769 1250.23 68.289C1250.15 68.1805 1250.08 68.0621 1250.03 67.936V57.9315C1249.72 58.1865 1248.69 58.3907 1248.69 56.6622C1248.69 55.5842 1249.46 54.299 1250.82 53.5126C1249.44 53.7289 1247.62 54.2816 1245.76 55.8773C1243.56 57.8062 1242.3 60.6203 1242.33 63.571C1242.33 63.5703 1243.33 60.4131 1244.58 60.1238Z" fill="white"/>
<path d="M1252.31 79.9887C1261.31 79.988 1268.61 72.6032 1268.61 63.4936C1268.61 54.3841 1261.31 47 1252.31 47C1252.3 47 1252.3 47 1252.3 47C1243.3 47.0008 1236 54.3856 1236 63.4951C1236 72.6054 1243.3 79.9895 1252.31 79.9887ZM1252.3 47.6582C1260.95 47.6574 1267.95 54.7469 1267.96 63.4921V63.4928C1267.96 72.238 1260.95 79.3275 1252.3 79.3275C1243.66 79.3291 1236.65 72.2395 1236.65 63.4944C1236.65 54.7492 1243.66 47.6589 1252.3 47.6582Z" fill="white"/>
<path d="M1282.63 58.7155C1282.63 60.3406 1281.74 61.3929 1279.97 61.3929C1278.19 61.3929 1277.29 60.3406 1277.29 58.7155V54H1274.61V58.9286C1274.61 61.7659 1276.53 63.6307 1279.97 63.6307C1283.4 63.6307 1285.31 61.7659 1285.31 58.9286V54H1282.63V58.7155Z" fill="white"/>
<path d="M1298 54H1295.41V59.7012L1289.94 54H1287.1V63.3244H1289.69V57.1969L1295.64 63.3244H1298V54Z" fill="white"/>
<path d="M1310.57 57.1836C1310.57 55.0523 1308.74 54 1306.38 54H1299.92V63.3244H1302.59V60.3805H1305.3L1307.74 63.3244H1310.86L1308.15 60.1541C1309.59 59.7278 1310.57 58.7421 1310.57 57.1836ZM1306.18 58.4091H1302.58V56.0647H1306.18C1307.14 56.0647 1307.84 56.3311 1307.84 57.2369C1307.84 58.1427 1307.14 58.4091 1306.18 58.4091Z" fill="white"/>
<path d="M1321.83 61.2464H1314.64V59.5946H1320.45V57.6099H1314.64V56.078H1321.68V54H1311.99V63.3244H1321.83V61.2464Z" fill="white"/>
<path d="M1327.19 54L1322.42 63.3244H1325.24L1326.11 61.5394H1331.16L1332.03 63.3244H1334.89L1330.12 54H1327.19ZM1327.03 59.6079L1328.64 56.3045L1330.23 59.6079H1327.03Z" fill="white"/>
<path d="M1338.41 61.1398V54H1335.72V63.3244H1344.61V61.1398H1338.41Z" fill="white"/>
<path d="M1290.27 70.1219H1294.1V68.8112H1290.27V67.8001H1294.92V66.4294H1288.52V72.5822H1295.01V71.2115H1290.27V70.1219Z" fill="white"/>
<path d="M1301.48 70.1912L1297.88 66.4294H1296V72.5822H1297.71V68.5394L1301.64 72.5822H1303.2V66.4294H1301.48V70.1912Z" fill="white"/>
<path d="M1307.98 70.2792H1310V70.8333C1309.57 71.2289 1308.98 71.3781 1308.24 71.3781C1306.76 71.3781 1305.92 70.7187 1305.92 69.5052C1305.92 68.3011 1306.73 67.6417 1308.21 67.6417C1309.03 67.6417 1309.57 67.8521 1310.1 68.3277L1311.39 67.3606C1310.76 66.7625 1309.67 66.2271 1308.17 66.2271C1305.67 66.2271 1304.13 67.4232 1304.13 69.5066C1304.13 71.5899 1305.67 72.7861 1308.17 72.7861C1309.79 72.7861 1310.99 72.2413 1311.64 71.4234V69.023H1307.99V70.2792H1307.98Z" fill="white"/>
<path d="M1314.47 66.4294H1312.7V72.5835H1314.47V66.4294Z" fill="white"/>
<path d="M1321.22 70.1912L1317.61 66.4294H1315.73V72.5822H1317.44V68.5394L1321.37 72.5822H1322.93V66.4294H1321.22V70.1912Z" fill="white"/>
<path d="M1325.95 70.1219H1329.78V68.8112H1325.95V67.8001H1330.6V66.4294H1324.21V72.5822H1330.7V71.2115H1325.95V70.1219Z" fill="white"/>
<circle cx="689" cy="63" r="3" fill="#C1D7D2"/>
<circle cx="1049" cy="63" r="3" fill="#C1D7D2"/>
<line x1="689" y1="62.75" x2="1049" y2="62.75" stroke="#C1D7D2" stroke-width="0.5"/>
<path d="M1059 63L1054.5 65.5981L1054.5 60.4019L1059 63Z" fill="#C1D7D2"/>
<defs>
<filter id="filter0_b_150_3508" x="625" y="16" width="70" height="94" filterUnits="userSpaceOnUse" color-interpolation-filters="sRGB">
<feFlood flood-opacity="0" result="BackgroundImageFix"/>
<feGaussianBlur in="BackgroundImageFix" stdDeviation="11"/>
<feComposite in2="SourceAlpha" operator="in" result="effect1_backgroundBlur_150_3508"/>
<feBlend mode="normal" in="SourceGraphic" in2="effect1_backgroundBlur_150_3508" result="shape"/>
</filter>
<clipPath id="clip0_150_3508">
<rect width="40" height="40" fill="white" transform="translate(0 43)"/>
</clipPath>
<clipPath id="clip1_150_3508">
<rect width="32" height="32" fill="white" transform="translate(1072 47)"/>
</clipPath>
<clipPath id="clip2_150_3508">
<rect width="16" height="16" fill="white" transform="translate(1080 55)"/>
</clipPath>
</defs>
</svg>
