<svg width="273" height="33" viewBox="0 0 273 33" fill="none" xmlns="http://www.w3.org/2000/svg">
<g clip-path="url(#clip0_150_3521)">
<path d="M16 32C24.8366 32 32 24.8366 32 16C32 7.16344 24.8366 0 16 0C7.16344 0 0 7.16344 0 16C0 24.8366 7.16344 32 16 32Z" fill="#C1D7D2"/>
<g clip-path="url(#clip1_150_3521)">
<path d="M20.1719 18.6878L16.2255 23.8883C16.1125 24.0373 15.888 24.0372 15.7751 23.8883L11.8287 18.6878C11.7368 18.5669 11.874 18.406 12.0076 18.4774L15.8673 20.5338C15.9494 20.5777 16.048 20.578 16.1304 20.5352L19.9929 18.4774C20.1266 18.406 20.2638 18.5669 20.1719 18.6878Z" fill="#6E6F80"/>
<path d="M20.1716 18.6878C20.1716 18.6878 16.2241 23.8897 16.2235 23.8905C16.1512 23.9839 16 23.9274 16 23.8092V20.6805C16 20.6338 16.0258 20.5908 16.067 20.5688L19.9926 18.4774C20.1263 18.406 20.2635 18.5669 20.1716 18.6878Z" fill="#585966"/>
<path d="M20.3876 14.8079L16.1319 17.0443C16.0508 17.0877 15.9501 17.0877 15.8688 17.0443L11.6131 14.8079C11.4639 14.7294 11.4161 14.5385 11.5105 14.3988L15.7663 8.12416C15.8778 7.95897 16.122 7.95854 16.234 8.12381L20.4901 14.3988C20.5845 14.5385 20.5368 14.7294 20.3876 14.8079Z" fill="#6E6F80"/>
<path d="M20.3872 14.8079C20.3872 14.8079 16.1307 17.0448 16.1303 17.045C16.0711 17.0762 16 17.03 16 16.963V8.11351C16 8.04746 16.0695 8.00072 16.1284 8.03056C16.169 8.05121 16.2055 8.08229 16.2337 8.12384L20.4897 14.3989C20.5842 14.5385 20.5365 14.7295 20.3872 14.8079Z" fill="#585966"/>
<path d="M15.8684 19.132L11.2011 16.6792C11.0628 16.6065 11.0097 16.4355 11.0823 16.2972C11.1551 16.1589 11.3261 16.1058 11.4643 16.1784L16 18.562L20.5357 16.1784C20.6739 16.1056 20.845 16.1589 20.9177 16.2972C20.9904 16.4355 20.9372 16.6065 20.7989 16.6791L16.1316 19.1319C16.0492 19.1753 15.9508 19.1753 15.8684 19.132Z" fill="#6E6F80"/>
<path d="M16.1188 8.02625C16.0622 8.00574 16 8.05093 16 8.11351V12.8249C16 12.9963 15.9218 13.1576 15.7889 13.2659C14.913 13.9797 13.8355 14.203 12.7265 14.071C12.307 14.0211 12.0916 13.5417 12.3287 13.1921L15.7659 8.12419C15.8473 8.00355 16.0008 7.97059 16.1188 8.02625Z" fill="#828396"/>
<path d="M15.4712 20.5938C15.2836 21.1208 14.855 21.5303 14.2886 21.6608C14.1819 21.6854 14.0708 21.6423 14.0046 21.5551L11.8287 18.6878C11.7368 18.5669 11.874 18.406 12.0076 18.4774L15.3367 20.2513C15.4597 20.3168 15.5179 20.4626 15.4712 20.5938Z" fill="#828396"/>
</g>
</g>
<path d="M43.28 24V13.968H53.52V14.848H44.336V18.4H52.672V19.28H44.336V23.104H53.52V24H43.28ZM59.8344 24V14.848H54.9544V13.968H65.7064V14.848H60.8904V24H59.8344ZM67.7019 24V13.968H68.7579V18.464H77.2539V13.968H78.2939V24H77.2539V19.392H68.7579V24H67.7019ZM80.8581 24V13.968H91.0981V14.848H81.9141V18.4H90.2501V19.28H81.9141V23.104H91.0981V24H80.8581ZM104.149 24H102.965L100.437 19.728H94.1485V24H93.0925V13.968H101.749C102.997 13.968 104.021 14.944 104.021 16.208V17.328C104.021 18.8 103.077 19.728 101.637 19.728H101.621L104.149 24ZM94.1485 14.848V18.848H101.525C102.453 18.848 102.997 18.208 102.997 17.424V16.272C102.997 15.392 102.309 14.848 101.525 14.848H94.1485ZM106.546 24V13.968H116.786V14.848H107.602V18.4H115.938V19.28H107.602V23.104H116.786V24H106.546ZM121.516 24C119.948 24 118.78 23.056 118.78 21.408V13.968H119.82V21.216C119.82 22.448 120.588 23.12 121.692 23.12H126.844C128.092 23.12 128.748 22.448 128.748 21.216L128.732 13.968H129.74V21.408C129.74 23.056 128.62 24 127.052 24H121.516ZM144.92 13.968H145.848V24H144.856V15.52L139.544 21.792H138.648L133.288 15.472V24H132.296V13.968H133.272L139.096 20.848L144.92 13.968Z" fill="#C1D7D2"/>
<path d="M172.577 13.1238C172.692 13.0927 172.812 13.0783 172.931 13.0828C173.597 13.1064 174.118 13.6712 174.095 14.3445V21.7536C174.095 22.5082 173.616 22.6722 173.174 22.6638C172.874 22.6426 172.577 22.5864 172.29 22.496C174.142 25.0315 177.059 26.5452 180.175 26.5878L182.875 23.8405L184.475 25.6609C188.461 23.7554 189.712 20.2369 189.993 18.8659C188.535 20.3834 186.922 21.9108 185.834 20.8525C185.834 20.8525 185.774 15.197 185.774 12.8779C185.774 9.76241 188.701 7.43567 188.701 7.43567C187.093 7.7249 185.162 8.30184 183.116 10.3348C182.931 10.5208 182.755 10.7159 182.59 10.9208C181.71 10.2422 180.573 10.4441 180.573 10.4441C181.187 10.7842 181.802 11.7802 181.802 12.6046V20.7068C181.802 20.7068 180.461 21.9001 179.427 21.9001C178.953 21.9047 178.508 21.6769 178.23 21.289C178.149 21.1805 178.081 21.0621 178.03 20.936V10.9315C177.724 11.1865 176.692 11.3907 176.692 9.6622C176.692 8.58424 177.46 7.29903 178.825 6.51257C177.444 6.72893 175.625 7.28157 173.763 8.87726C171.556 10.8062 170.299 13.6203 170.328 16.571C170.327 16.5703 171.327 13.4131 172.577 13.1238Z" fill="white"/>
<path d="M180.305 32.9887C189.31 32.988 196.609 25.6032 196.609 16.4936C196.609 7.38405 189.309 0 180.305 0C180.304 0 180.304 0 180.303 0C171.298 0.00075913 163.999 7.38557 164 16.4951C164 25.6054 171.3 32.9895 180.305 32.9887ZM180.301 0.658165C188.946 0.657406 195.954 7.74692 195.955 16.4921V16.4928C195.955 25.238 188.948 32.3275 180.304 32.3275C171.658 32.3291 164.65 25.2395 164.65 16.4944C164.649 7.7492 171.656 0.658925 180.301 0.658165Z" fill="white"/>
<path d="M210.627 11.7155C210.627 13.3406 209.745 14.3929 207.967 14.3929C206.19 14.3929 205.294 13.3406 205.294 11.7155V7H202.608V11.9286C202.608 14.7659 204.531 16.6307 207.967 16.6307C211.404 16.6307 213.313 14.7659 213.313 11.9286V7H210.627V11.7155Z" fill="white"/>
<path d="M226.001 7H223.407V12.7012L217.943 7H215.099V16.3244H217.693V10.1969L223.644 16.3244H226.001V7Z" fill="white"/>
<path d="M238.568 10.1836C238.568 8.05232 236.738 7 234.381 7H227.916V16.3244H230.589V13.3805H233.301L235.737 16.3244H238.858L236.145 13.1541C237.594 12.7278 238.568 11.7421 238.568 10.1836ZM234.184 11.4091H230.576V9.06468H234.184C235.145 9.06468 235.843 9.33109 235.843 10.2369C235.843 11.1427 235.145 11.4091 234.184 11.4091Z" fill="white"/>
<path d="M249.828 14.2464H242.638V12.5946H248.446V10.6099H242.638V9.078H249.683V7H239.991V16.3244H249.828V14.2464Z" fill="white"/>
<path d="M255.187 7L250.421 16.3244H253.239L254.108 14.5394H259.164L260.033 16.3244H262.89L258.124 7H255.187ZM255.029 12.6079L256.636 9.30445L258.229 12.6079H255.029Z" fill="white"/>
<path d="M266.407 14.1398V7H263.721V16.3244H272.608V14.1398H266.407Z" fill="white"/>
<path d="M218.267 23.1219H222.1V21.8112H218.267V20.8001H222.917V19.4294H216.521V25.5822H223.012V24.2115H218.267V23.1219Z" fill="white"/>
<path d="M229.485 23.1912L225.878 19.4294H224.002V25.5822H225.714V21.5394L229.641 25.5822H231.196V19.4294H229.485V23.1912Z" fill="white"/>
<path d="M235.984 23.2792H238V23.8333C237.575 24.2289 236.983 24.3781 236.235 24.3781C234.758 24.3781 233.925 23.7187 233.925 22.5052C233.925 21.3011 234.733 20.6417 236.21 20.6417C237.027 20.6417 237.575 20.8521 238.096 21.3277L239.39 20.3606C238.756 19.7625 237.669 19.2271 236.167 19.2271C233.673 19.2271 232.126 20.4232 232.126 22.5066C232.126 24.5899 233.673 25.7861 236.167 25.7861C237.792 25.7861 238.991 25.2413 239.643 24.4234V22.023H235.985V23.2792H235.984Z" fill="white"/>
<path d="M242.473 19.4294H240.701V25.5835H242.473V19.4294Z" fill="white"/>
<path d="M249.215 23.1912L245.609 19.4294H243.732V25.5822H245.444V21.5394L249.372 25.5822H250.927V19.4294H249.215V23.1912Z" fill="white"/>
<path d="M253.952 23.1219H257.784V21.8112H253.952V20.8001H258.6V19.4294H252.205V25.5822H258.696V24.2115H253.952V23.1219Z" fill="white"/>
<defs>
<clipPath id="clip0_150_3521">
<rect width="32" height="32" fill="white"/>
</clipPath>
<clipPath id="clip1_150_3521">
<rect width="16" height="16" fill="white" transform="translate(8 8)"/>
</clipPath>
</defs>
</svg>
