<svg width="173" height="40" viewBox="0 0 173 40" fill="none" xmlns="http://www.w3.org/2000/svg">
<g clip-path="url(#clip0_150_3514)">
<path d="M20 40C31.0457 40 40 31.0457 40 20C40 8.95431 31.0457 0 20 0C8.95431 0 0 8.95431 0 20C0 31.0457 8.95431 40 20 40Z" fill="#C1D7D2"/>
<path d="M9.86746 20.672L9.95386 20.5364L15.1563 12.3972C15.1736 12.3702 15.1978 12.3484 15.2265 12.3341C15.2551 12.3198 15.2871 12.3134 15.319 12.3158C15.351 12.3181 15.3817 12.329 15.408 12.3474C15.4342 12.3657 15.4551 12.3908 15.4683 12.42C16.3375 14.368 17.0875 16.7904 16.7363 18.2988C16.5863 18.9192 16.1755 19.7596 15.7131 20.5364C15.6531 20.6496 15.5875 20.7604 15.5179 20.8672C15.5015 20.8914 15.4795 20.9112 15.4537 20.9248C15.4278 20.9384 15.399 20.9454 15.3699 20.9452H10.0195C9.87546 20.9452 9.79146 20.7892 9.86746 20.672Z" fill="#213D6A"/>
<path d="M33.058 22.1844V23.4724C33.058 23.5468 33.0128 23.6124 32.9472 23.6412C32.5444 23.814 31.1656 24.4468 30.5924 25.244C29.1292 27.28 28.0116 30.192 25.5128 30.192H15.0888C11.3944 30.192 8.40039 27.188 8.40039 23.4808V23.362C8.40039 23.2632 8.48039 23.1832 8.57919 23.1832H14.3904C14.5052 23.1832 14.5896 23.29 14.5792 23.4032C14.5383 23.7873 14.6104 24.1751 14.7868 24.5188C14.9558 24.8606 15.2169 25.1483 15.5408 25.3495C15.8647 25.5506 16.2383 25.6572 16.6196 25.6572H19.4964V23.4112H16.6524C16.6191 23.4108 16.5865 23.4013 16.5582 23.3838C16.5299 23.3663 16.5069 23.3414 16.4917 23.3117C16.4765 23.2821 16.4696 23.2489 16.4719 23.2157C16.4741 23.1825 16.4853 23.1505 16.5044 23.1232C16.5356 23.076 16.5704 23.0272 16.6072 22.9712C16.9783 22.4371 17.324 21.8858 17.6432 21.3192C17.904 20.8632 18.1568 20.376 18.36 19.8872C18.4012 19.7988 18.434 19.7084 18.4668 19.62C18.5224 19.464 18.58 19.318 18.6212 19.172C18.662 19.0488 18.6952 18.9192 18.728 18.798C18.8244 18.3828 18.8656 17.9432 18.8656 17.4872C18.8656 17.3084 18.8576 17.1212 18.8408 16.9424C18.8328 16.7472 18.808 16.552 18.7832 16.3568C18.7641 16.1817 18.7374 16.0076 18.7032 15.8348C18.6604 15.5722 18.6056 15.3117 18.5392 15.054L18.5164 14.9556C18.4668 14.7768 18.426 14.6064 18.3684 14.4276C18.2094 13.8803 18.0269 13.3401 17.8216 12.8084C17.7496 12.6048 17.6676 12.4096 17.5856 12.2144C17.4644 11.9204 17.3408 11.6536 17.228 11.4008C17.1704 11.2856 17.1212 11.1808 17.072 11.074C17.0171 10.9538 16.9602 10.8346 16.9012 10.7164C16.86 10.6284 16.8128 10.546 16.78 10.4636L16.4284 9.8144C16.4174 9.79476 16.4124 9.7723 16.4141 9.74984C16.4158 9.72738 16.4241 9.70592 16.4379 9.68815C16.4518 9.67038 16.4705 9.65709 16.4919 9.64995C16.5133 9.64281 16.5362 9.64213 16.558 9.648L18.7568 10.244H18.7628C18.7668 10.244 18.7692 10.246 18.7708 10.246L19.0608 10.326L19.3792 10.4164L19.4964 10.4492V9.1424C19.4964 8.5116 20.002 8 20.6264 8C20.9388 8 21.2224 8.1272 21.426 8.3348C21.6292 8.5428 21.7568 8.826 21.7568 9.1428V11.0824L21.9908 11.148C22.01 11.154 22.0281 11.163 22.0444 11.1748C22.102 11.218 22.1844 11.2816 22.2888 11.3596C22.3712 11.4252 22.4596 11.5056 22.5664 11.5876C22.778 11.7584 23.0304 11.978 23.308 12.2308C23.382 12.2948 23.454 12.3604 23.52 12.426C23.9182 12.7925 24.2987 13.1779 24.66 13.5808C24.7672 13.702 24.872 13.8252 24.9788 13.9548C25.0856 14.0864 25.1988 14.2156 25.2972 14.3452C25.4268 14.518 25.5664 14.6968 25.6876 14.8836C25.7452 14.972 25.8108 15.0624 25.8664 15.1508C26.0224 15.3868 26.16 15.6316 26.2916 15.876C26.3472 15.9892 26.4048 16.1124 26.454 16.2336C26.6 16.5604 26.7148 16.8936 26.7888 17.226C26.8116 17.298 26.828 17.376 26.836 17.446V17.4624C26.8608 17.5612 26.8692 17.666 26.8772 17.7728C26.9113 18.1155 26.8919 18.4613 26.8196 18.798C26.7878 18.9435 26.7473 19.0869 26.6984 19.2276C26.6492 19.3676 26.6 19.5132 26.536 19.6508C26.4122 19.942 26.2645 20.2224 26.0944 20.4892C26.0388 20.5876 25.9732 20.6924 25.9072 20.7912C25.8352 20.896 25.7616 20.9948 25.6956 21.0912C25.6052 21.2144 25.5088 21.344 25.41 21.4592C25.322 21.5804 25.2312 21.7016 25.1328 21.8084C25.0008 21.9662 24.8651 22.1209 24.726 22.2724C24.6436 22.3692 24.5552 22.468 24.4648 22.5564C24.3768 22.6548 24.286 22.7432 24.204 22.8256C24.0664 22.9632 23.9512 23.07 23.8548 23.1584L23.6288 23.366C23.5952 23.3952 23.5521 23.4113 23.5076 23.4112H21.7564V25.6572H23.9592C24.4505 25.657 24.9256 25.4812 25.2988 25.1616C25.4284 25.0488 25.9932 24.5596 26.6612 23.822C26.6836 23.7971 26.7128 23.7793 26.7452 23.7708L32.8296 22.0116C32.8563 22.0041 32.8843 22.0029 32.9115 22.0081C32.9387 22.0133 32.9644 22.0247 32.9865 22.0414C33.0086 22.0582 33.0265 22.0798 33.0388 22.1046C33.0511 22.1294 33.058 22.1567 33.058 22.1844Z" fill="#213D6A"/>
</g>
<path d="M50.3027 20.998C50.3027 18.8366 51.1426 17.0983 52.8223 15.7832C54.502 14.4616 56.8001 13.8008 59.7168 13.8008C62.653 13.8008 64.9609 14.4616 66.6406 15.7832C68.3203 17.0983 69.1602 18.8366 69.1602 20.998C69.1602 23.1725 68.3171 24.9173 66.6309 26.2324C64.9447 27.541 62.64 28.1953 59.7168 28.1953C56.8132 28.1953 54.5182 27.541 52.832 26.2324C51.1458 24.9173 50.3027 23.1725 50.3027 20.998ZM55.5957 20.998C55.5957 22.0267 55.9701 22.8275 56.7188 23.4004C57.4674 23.9733 58.4668 24.2598 59.7168 24.2598C61.0254 24.2598 62.041 23.9668 62.7637 23.3809C63.4928 22.7949 63.8574 22.0007 63.8574 20.998C63.8574 19.9564 63.4831 19.1491 62.7344 18.5762C61.9922 18.0033 60.9863 17.7168 59.7168 17.7168C58.4212 17.7168 57.4089 18.013 56.6797 18.6055C55.957 19.1979 55.5957 19.9954 55.5957 20.998ZM70.3516 28V13.9961H80.9961C82.8385 13.9961 84.2513 14.4486 85.2344 15.3535C86.2174 16.252 86.709 17.4824 86.709 19.0449C86.709 20.6009 86.2142 21.8314 85.2246 22.7363C84.2415 23.6348 82.832 24.084 80.9961 24.084H75.5371V28H70.3516ZM75.5371 20.7441H79.7363C80.2832 20.7441 80.6934 20.6107 80.9668 20.3438C81.2402 20.0768 81.377 19.709 81.377 19.2402C81.377 18.7454 81.2272 18.3711 80.9277 18.1172C80.6348 17.8633 80.2376 17.7363 79.7363 17.7363H75.5371V20.7441ZM87.9102 28V13.9961H102.188V17.8047H93.0957V19.3574H102.188V22.6387H93.0957V24.2012H102.188V28H87.9102ZM115.205 13.9961H120.391V28H114.385L109.326 21.0762H109.072V28H103.887V13.9961H109.99L114.951 21.2617H115.205V13.9961ZM126.885 23.2637C127.002 23.6478 127.393 23.957 128.057 24.1914C128.721 24.4258 129.531 24.543 130.488 24.543C132.103 24.543 132.91 24.2142 132.91 23.5566C132.91 23.3809 132.858 23.2344 132.754 23.1172C132.656 23 132.507 22.9121 132.305 22.8535C132.109 22.7884 131.921 22.7428 131.738 22.7168C131.556 22.6908 131.318 22.6712 131.025 22.6582L127.51 22.4238C125.322 22.2741 123.805 21.8704 122.959 21.2129C122.113 20.5488 121.689 19.6374 121.689 18.4785C121.689 16.9876 122.406 15.8353 123.838 15.0215C125.27 14.2077 127.214 13.8008 129.668 13.8008C132.253 13.8008 134.287 14.2435 135.771 15.1289C137.262 16.0143 138.04 17.1992 138.105 18.6836H132.812C132.695 18.2865 132.331 17.9674 131.719 17.7266C131.113 17.4792 130.371 17.3555 129.492 17.3555C128.704 17.3555 128.089 17.4531 127.646 17.6484C127.21 17.8438 126.992 18.1009 126.992 18.4199C126.992 18.5957 127.041 18.7389 127.139 18.8496C127.236 18.9603 127.402 19.0482 127.637 19.1133C127.871 19.1719 128.105 19.2142 128.34 19.2402C128.574 19.2663 128.903 19.2923 129.326 19.3184L132.666 19.5234C134.704 19.6406 136.136 20.054 136.963 20.7637C137.796 21.4668 138.213 22.4531 138.213 23.7227C138.213 25.1224 137.578 26.2194 136.309 27.0137C135.039 27.8014 133.06 28.1953 130.371 28.1953C127.585 28.1953 125.449 27.7559 123.965 26.877C122.487 25.998 121.696 24.7936 121.592 23.2637H126.885ZM139.414 28V13.9961H153.691V17.8047H144.6V19.3574H153.691V22.6387H144.6V24.2012H153.691V28H139.414ZM167.188 28L166.611 26.2422H160.752L160.176 28H154.59L159.668 13.9961H167.695L172.773 28H167.188ZM161.855 22.8438H165.508L163.877 17.8633H163.477L161.855 22.8438Z" fill="#C1D7D2"/>
<defs>
<clipPath id="clip0_150_3514">
<rect width="40" height="40" fill="white"/>
</clipPath>
</defs>
</svg>
