<svg width="177" height="68" viewBox="0 0 177 68" fill="none" xmlns="http://www.w3.org/2000/svg">
<g id="button1">
<g id="frame">
<path id="Vector" d="M155.376 2.41633L156.539 4.43015L172.448 31.9864L173.611 34L172.448 36.0138L156.539 63.5701L155.376 65.5839H153.051H23.3505H21.0253L19.8627 63.5701L3.95294 36.0138L2.79036 34L3.95294 31.9864L19.8627 4.43015L21.0253 2.41633H23.3505H153.051H155.376ZM156.771 0H155.376H153.051H23.3505H21.0253H19.6301L18.9325 1.20816L17.77 3.22177L1.86017 30.778L0.697588 32.7918L0 34L0.697588 35.2082L1.86017 37.2218L17.77 64.7782L18.9325 66.7918L19.6301 68H21.0253H23.3505H153.051H155.376H156.771L157.469 66.7918L158.632 64.7782L174.541 37.2218L175.704 35.2082L176.401 34L175.704 32.7918L174.541 30.778L158.632 3.22177L157.469 1.20816L156.771 0Z" fill="#382522"/>
<path id="Vector_2" d="M153.051 6.44397L168.961 34.0002L153.051 61.5565H23.3506L7.44083 34.0002L23.3506 6.44397H153.051ZM155.376 2.41632H153.051H23.3506H21.0255L19.8629 4.43015L3.9531 31.9864L2.79053 34.0002L3.9531 36.014L19.8629 63.5703L21.0255 65.5841H23.3506H153.051H155.376L156.539 63.5703L172.449 36.014L173.611 34.0002L172.449 31.9864L156.539 4.43015L155.376 2.41632Z" fill="url(#paint0_linear_1_166)"/>
<g id="Group">
<path id="Vector_3" d="M3.95261 33.5715L19.8624 6.01501L21.025 4.00141H23.3504H153.051H155.376L156.539 6.01501L172.448 33.5715L173.153 34.7925L173.611 34.0002L172.448 31.9864L156.539 4.43015L155.376 2.41632H153.051H23.3504H21.025L19.8624 4.43015L3.95261 31.9864L2.79004 34.0002L3.24747 34.7925L3.95261 33.5715Z" fill="#C69C6D"/>
</g>
</g>
<g id="button">
<path id="Vector_4" d="M153.051 6.44373H23.3505L7.44092 34.0002L23.3505 61.5564H153.051L168.961 34.0002L153.051 6.44373Z" fill="url(#paint1_linear_1_166)"/>
<path id="Vector_5" d="M148.534 12.5212H27.867L15.4663 34.0002L27.867 55.4789H148.534L160.935 34.0002L148.534 12.5212Z" fill="url(#paint2_linear_1_166)"/>
<path id="Vector_6" d="M27.8672 12.5212L23.3506 6.44373H153.051L148.535 12.5212H27.8672Z" fill="url(#paint3_linear_1_166)"/>
<path id="Vector_7" d="M27.8672 55.4789L23.3506 61.5564H153.051L148.535 55.4789H27.8672Z" fill="#AF6735"/>
<path id="Vector_8" opacity="0.3" d="M151.656 8.86027L166.17 34.0002L151.656 59.1401H24.7457L10.2313 34.0002L24.7457 8.86027H151.656ZM153.051 6.44373H23.3505L7.44092 34L23.3505 61.5562H153.051L168.961 34L153.051 6.44373Z" fill="black"/>
<path id="Vector_9" opacity="0.3" d="M27.867 12.5212H148.534L150.562 16.0332H25.8394L27.867 12.5212Z" fill="url(#paint4_linear_1_166)"/>
<g id="Group_2" opacity="0.3">
<g id="Clip path group">
<mask id="mask0_1_166" style="mask-type:luminance" maskUnits="userSpaceOnUse" x="15" y="12" width="146" height="44">
<g id="SVGID_00000064333706189703800550000002609130050462677942_">
<path id="Vector_10" d="M148.534 12.5212H27.867L15.4663 34.0002L27.867 55.4789H148.534L160.935 34.0002L148.534 12.5212Z" fill="white"/>
</g>
</mask>
<g mask="url(#mask0_1_166)">
<path id="Vector_11" d="M88.2004 32.1261C132.889 32.1261 169.116 20.6277 169.116 6.44376C169.116 -7.74017 132.889 -19.2385 88.2004 -19.2385C43.5119 -19.2385 7.28467 -7.74017 7.28467 6.44376C7.28467 20.6277 43.5119 32.1261 88.2004 32.1261Z" fill="white"/>
</g>
</g>
</g>
</g>
</g>
<defs>
<linearGradient id="paint0_linear_1_166" x1="88.2008" y1="65.5839" x2="88.2008" y2="2.41641" gradientUnits="userSpaceOnUse">
<stop stop-color="#63433B"/>
<stop offset="0.2441" stop-color="#67453B"/>
<stop offset="0.4993" stop-color="#744D3D"/>
<stop offset="0.7585" stop-color="#89593F"/>
<stop offset="1" stop-color="#A36841"/>
</linearGradient>
<linearGradient id="paint1_linear_1_166" x1="88.2009" y1="61.5564" x2="88.2009" y2="6.44382" gradientUnits="userSpaceOnUse">
<stop stop-color="#FFD160"/>
<stop offset="1" stop-color="#D8813E"/>
</linearGradient>
<linearGradient id="paint2_linear_1_166" x1="88.2007" y1="55.479" x2="88.2007" y2="12.5212" gradientUnits="userSpaceOnUse">
<stop stop-color="#D8813E"/>
<stop offset="1" stop-color="#FFD160"/>
</linearGradient>
<linearGradient id="paint3_linear_1_166" x1="23.3506" y1="9.48252" x2="153.051" y2="9.48252" gradientUnits="userSpaceOnUse">
<stop stop-color="#FFD160"/>
<stop offset="0.2181" stop-color="#FDCD5E"/>
<stop offset="0.445" stop-color="#F7C059"/>
<stop offset="0.676" stop-color="#EDAC50"/>
<stop offset="0.9083" stop-color="#DF8F44"/>
<stop offset="1" stop-color="#D8813E"/>
</linearGradient>
<linearGradient id="paint4_linear_1_166" x1="25.8394" y1="14.2773" x2="150.562" y2="14.2773" gradientUnits="userSpaceOnUse">
<stop stop-color="white"/>
<stop offset="0.5" stop-color="white"/>
<stop offset="1" stop-color="white"/>
</linearGradient>
</defs>
</svg>
