<svg width="1345" height="50" viewBox="0 0 1345 50" fill="none" xmlns="http://www.w3.org/2000/svg">
<g filter="url(#filter0_b_2133_564)">
<rect x="647" width="26" height="50" rx="13" fill="white" fill-opacity="0.2"/>
<rect x="647.25" y="0.25" width="25.5" height="49.5" rx="12.75" stroke="white" stroke-width="0.5"/>
</g>
<circle cx="660" cy="11" r="5" fill="white"/>
<g clip-path="url(#clip0_2133_564)">
<path d="M20 45C31.0457 45 40 36.0457 40 25C40 13.9543 31.0457 5 20 5C8.95431 5 0 13.9543 0 25C0 36.0457 8.95431 45 20 45Z" fill="#C1D7D2"/>
<path d="M9.86746 25.672L9.95386 25.5364L15.1563 17.3972C15.1736 17.3702 15.1978 17.3484 15.2265 17.3341C15.2551 17.3198 15.2871 17.3134 15.319 17.3158C15.351 17.3181 15.3817 17.329 15.408 17.3474C15.4342 17.3657 15.4551 17.3908 15.4683 17.42C16.3375 19.368 17.0875 21.7904 16.7363 23.2988C16.5863 23.9192 16.1755 24.7596 15.7131 25.5364C15.6531 25.6496 15.5875 25.7604 15.5179 25.8672C15.5015 25.8914 15.4795 25.9112 15.4537 25.9248C15.4278 25.9384 15.399 25.9454 15.3699 25.9452H10.0195C9.87546 25.9452 9.79146 25.7892 9.86746 25.672Z" fill="#213D6A"/>
<path d="M33.058 27.1844V28.4724C33.058 28.5468 33.0128 28.6124 32.9472 28.6412C32.5444 28.814 31.1656 29.4468 30.5924 30.244C29.1292 32.28 28.0116 35.192 25.5128 35.192H15.0888C11.3944 35.192 8.40039 32.188 8.40039 28.4808V28.362C8.40039 28.2632 8.48039 28.1832 8.57919 28.1832H14.3904C14.5052 28.1832 14.5896 28.29 14.5792 28.4032C14.5383 28.7873 14.6104 29.1751 14.7868 29.5188C14.9558 29.8606 15.2169 30.1483 15.5408 30.3495C15.8647 30.5506 16.2383 30.6572 16.6196 30.6572H19.4964V28.4112H16.6524C16.6191 28.4108 16.5865 28.4013 16.5582 28.3838C16.5299 28.3663 16.5069 28.3414 16.4917 28.3117C16.4765 28.2821 16.4696 28.2489 16.4719 28.2157C16.4741 28.1825 16.4853 28.1505 16.5044 28.1232C16.5356 28.076 16.5704 28.0272 16.6072 27.9712C16.9783 27.4371 17.324 26.8858 17.6432 26.3192C17.904 25.8632 18.1568 25.376 18.36 24.8872C18.4012 24.7988 18.434 24.7084 18.4668 24.62C18.5224 24.464 18.58 24.318 18.6212 24.172C18.662 24.0488 18.6952 23.9192 18.728 23.798C18.8244 23.3828 18.8656 22.9432 18.8656 22.4872C18.8656 22.3084 18.8576 22.1212 18.8408 21.9424C18.8328 21.7472 18.808 21.552 18.7832 21.3568C18.7641 21.1817 18.7374 21.0076 18.7032 20.8348C18.6604 20.5722 18.6056 20.3117 18.5392 20.054L18.5164 19.9556C18.4668 19.7768 18.426 19.6064 18.3684 19.4276C18.2094 18.8803 18.0269 18.3401 17.8216 17.8084C17.7496 17.6048 17.6676 17.4096 17.5856 17.2144C17.4644 16.9204 17.3408 16.6536 17.228 16.4008C17.1704 16.2856 17.1212 16.1808 17.072 16.074C17.0171 15.9538 16.9602 15.8346 16.9012 15.7164C16.86 15.6284 16.8128 15.546 16.78 15.4636L16.4284 14.8144C16.4174 14.7948 16.4124 14.7723 16.4141 14.7498C16.4158 14.7274 16.4241 14.7059 16.4379 14.6882C16.4518 14.6704 16.4705 14.6571 16.4919 14.65C16.5133 14.6428 16.5362 14.6421 16.558 14.648L18.7568 15.244H18.7628C18.7668 15.244 18.7692 15.246 18.7708 15.246L19.0608 15.326L19.3792 15.4164L19.4964 15.4492V14.1424C19.4964 13.5116 20.002 13 20.6264 13C20.9388 13 21.2224 13.1272 21.426 13.3348C21.6292 13.5428 21.7568 13.826 21.7568 14.1428V16.0824L21.9908 16.148C22.01 16.154 22.0281 16.163 22.0444 16.1748C22.102 16.218 22.1844 16.2816 22.2888 16.3596C22.3712 16.4252 22.4596 16.5056 22.5664 16.5876C22.778 16.7584 23.0304 16.978 23.308 17.2308C23.382 17.2948 23.454 17.3604 23.52 17.426C23.9182 17.7925 24.2987 18.1779 24.66 18.5808C24.7672 18.702 24.872 18.8252 24.9788 18.9548C25.0856 19.0864 25.1988 19.2156 25.2972 19.3452C25.4268 19.518 25.5664 19.6968 25.6876 19.8836C25.7452 19.972 25.8108 20.0624 25.8664 20.1508C26.0224 20.3868 26.16 20.6316 26.2916 20.876C26.3472 20.9892 26.4048 21.1124 26.454 21.2336C26.6 21.5604 26.7148 21.8936 26.7888 22.226C26.8116 22.298 26.828 22.376 26.836 22.446V22.4624C26.8608 22.5612 26.8692 22.666 26.8772 22.7728C26.9113 23.1155 26.8919 23.4613 26.8196 23.798C26.7878 23.9435 26.7473 24.0869 26.6984 24.2276C26.6492 24.3676 26.6 24.5132 26.536 24.6508C26.4122 24.942 26.2645 25.2224 26.0944 25.4892C26.0388 25.5876 25.9732 25.6924 25.9072 25.7912C25.8352 25.896 25.7616 25.9948 25.6956 26.0912C25.6052 26.2144 25.5088 26.344 25.41 26.4592C25.322 26.5804 25.2312 26.7016 25.1328 26.8084C25.0008 26.9662 24.8651 27.1209 24.726 27.2724C24.6436 27.3692 24.5552 27.468 24.4648 27.5564C24.3768 27.6548 24.286 27.7432 24.204 27.8256C24.0664 27.9632 23.9512 28.07 23.8548 28.1584L23.6288 28.366C23.5952 28.3952 23.5521 28.4113 23.5076 28.4112H21.7564V30.6572H23.9592C24.4505 30.657 24.9256 30.4812 25.2988 30.1616C25.4284 30.0488 25.9932 29.5596 26.6612 28.822C26.6836 28.7971 26.7128 28.7793 26.7452 28.7708L32.8296 27.0116C32.8563 27.0041 32.8843 27.0029 32.9115 27.0081C32.9387 27.0133 32.9644 27.0247 32.9865 27.0414C33.0086 27.0582 33.0265 27.0798 33.0388 27.1046C33.0511 27.1294 33.058 27.1567 33.058 27.1844Z" fill="#213D6A"/>
</g>
<path d="M50.3027 25.998C50.3027 23.8366 51.1426 22.0983 52.8223 20.7832C54.502 19.4616 56.8001 18.8008 59.7168 18.8008C62.653 18.8008 64.9609 19.4616 66.6406 20.7832C68.3203 22.0983 69.1602 23.8366 69.1602 25.998C69.1602 28.1725 68.3171 29.9173 66.6309 31.2324C64.9447 32.541 62.64 33.1953 59.7168 33.1953C56.8132 33.1953 54.5182 32.541 52.832 31.2324C51.1458 29.9173 50.3027 28.1725 50.3027 25.998ZM55.5957 25.998C55.5957 27.0267 55.9701 27.8275 56.7188 28.4004C57.4674 28.9733 58.4668 29.2598 59.7168 29.2598C61.0254 29.2598 62.041 28.9668 62.7637 28.3809C63.4928 27.7949 63.8574 27.0007 63.8574 25.998C63.8574 24.9564 63.4831 24.1491 62.7344 23.5762C61.9922 23.0033 60.9863 22.7168 59.7168 22.7168C58.4212 22.7168 57.4089 23.013 56.6797 23.6055C55.957 24.1979 55.5957 24.9954 55.5957 25.998ZM70.3516 33V18.9961H80.9961C82.8385 18.9961 84.2513 19.4486 85.2344 20.3535C86.2174 21.252 86.709 22.4824 86.709 24.0449C86.709 25.6009 86.2142 26.8314 85.2246 27.7363C84.2415 28.6348 82.832 29.084 80.9961 29.084H75.5371V33H70.3516ZM75.5371 25.7441H79.7363C80.2832 25.7441 80.6934 25.6107 80.9668 25.3438C81.2402 25.0768 81.377 24.709 81.377 24.2402C81.377 23.7454 81.2272 23.3711 80.9277 23.1172C80.6348 22.8633 80.2376 22.7363 79.7363 22.7363H75.5371V25.7441ZM87.9102 33V18.9961H102.188V22.8047H93.0957V24.3574H102.188V27.6387H93.0957V29.2012H102.188V33H87.9102ZM115.205 18.9961H120.391V33H114.385L109.326 26.0762H109.072V33H103.887V18.9961H109.99L114.951 26.2617H115.205V18.9961ZM126.885 28.2637C127.002 28.6478 127.393 28.957 128.057 29.1914C128.721 29.4258 129.531 29.543 130.488 29.543C132.103 29.543 132.91 29.2142 132.91 28.5566C132.91 28.3809 132.858 28.2344 132.754 28.1172C132.656 28 132.507 27.9121 132.305 27.8535C132.109 27.7884 131.921 27.7428 131.738 27.7168C131.556 27.6908 131.318 27.6712 131.025 27.6582L127.51 27.4238C125.322 27.2741 123.805 26.8704 122.959 26.2129C122.113 25.5488 121.689 24.6374 121.689 23.4785C121.689 21.9876 122.406 20.8353 123.838 20.0215C125.27 19.2077 127.214 18.8008 129.668 18.8008C132.253 18.8008 134.287 19.2435 135.771 20.1289C137.262 21.0143 138.04 22.1992 138.105 23.6836H132.812C132.695 23.2865 132.331 22.9674 131.719 22.7266C131.113 22.4792 130.371 22.3555 129.492 22.3555C128.704 22.3555 128.089 22.4531 127.646 22.6484C127.21 22.8438 126.992 23.1009 126.992 23.4199C126.992 23.5957 127.041 23.7389 127.139 23.8496C127.236 23.9603 127.402 24.0482 127.637 24.1133C127.871 24.1719 128.105 24.2142 128.34 24.2402C128.574 24.2663 128.903 24.2923 129.326 24.3184L132.666 24.5234C134.704 24.6406 136.136 25.054 136.963 25.7637C137.796 26.4668 138.213 27.4531 138.213 28.7227C138.213 30.1224 137.578 31.2194 136.309 32.0137C135.039 32.8014 133.06 33.1953 130.371 33.1953C127.585 33.1953 125.449 32.7559 123.965 31.877C122.487 30.998 121.696 29.7936 121.592 28.2637H126.885ZM139.414 33V18.9961H153.691V22.8047H144.6V24.3574H153.691V27.6387H144.6V29.2012H153.691V33H139.414ZM167.188 33L166.611 31.2422H160.752L160.176 33H154.59L159.668 18.9961H167.695L172.773 33H167.188ZM161.855 27.8438H165.508L163.877 22.8633H163.477L161.855 27.8438Z" fill="#C1D7D2"/>
<g clip-path="url(#clip1_2133_564)">
<path d="M1088 41C1096.84 41 1104 33.8366 1104 25C1104 16.1634 1096.84 9 1088 9C1079.16 9 1072 16.1634 1072 25C1072 33.8366 1079.16 41 1088 41Z" fill="#C1D7D2"/>
<g clip-path="url(#clip2_2133_564)">
<path d="M1092.17 27.6878L1088.23 32.8883C1088.11 33.0373 1087.89 33.0372 1087.78 32.8883L1083.83 27.6878C1083.74 27.5669 1083.87 27.406 1084.01 27.4774L1087.87 29.5338C1087.95 29.5777 1088.05 29.578 1088.13 29.5352L1091.99 27.4774C1092.13 27.406 1092.26 27.5669 1092.17 27.6878Z" fill="#6E6F80"/>
<path d="M1092.17 27.6878C1092.17 27.6878 1088.22 32.8897 1088.22 32.8905C1088.15 32.9839 1088 32.9274 1088 32.8092V29.6805C1088 29.6338 1088.03 29.5908 1088.07 29.5688L1091.99 27.4774C1092.13 27.406 1092.26 27.5669 1092.17 27.6878Z" fill="#585966"/>
<path d="M1092.39 23.8079L1088.13 26.0443C1088.05 26.0877 1087.95 26.0877 1087.87 26.0443L1083.61 23.8079C1083.46 23.7294 1083.42 23.5385 1083.51 23.3988L1087.77 17.1242C1087.88 16.959 1088.12 16.9585 1088.23 17.1238L1092.49 23.3988C1092.58 23.5385 1092.54 23.7294 1092.39 23.8079Z" fill="#6E6F80"/>
<path d="M1092.39 23.8079C1092.39 23.8079 1088.13 26.0448 1088.13 26.045C1088.07 26.0762 1088 26.03 1088 25.963V17.1135C1088 17.0475 1088.07 17.0007 1088.13 17.0306C1088.17 17.0512 1088.21 17.0823 1088.23 17.1238L1092.49 23.3989C1092.58 23.5385 1092.54 23.7295 1092.39 23.8079Z" fill="#585966"/>
<path d="M1087.87 28.132L1083.2 25.6792C1083.06 25.6065 1083.01 25.4355 1083.08 25.2972C1083.16 25.1589 1083.33 25.1058 1083.46 25.1784L1088 27.562L1092.54 25.1784C1092.67 25.1056 1092.85 25.1589 1092.92 25.2972C1092.99 25.4355 1092.94 25.6065 1092.8 25.6791L1088.13 28.1319C1088.05 28.1753 1087.95 28.1753 1087.87 28.132Z" fill="#6E6F80"/>
<path d="M1088.12 17.0262C1088.06 17.0057 1088 17.0509 1088 17.1135V21.8249C1088 21.9963 1087.92 22.1576 1087.79 22.2659C1086.91 22.9797 1085.84 23.203 1084.73 23.071C1084.31 23.0211 1084.09 22.5417 1084.33 22.1921L1087.77 17.1242C1087.85 17.0035 1088 16.9706 1088.12 17.0262Z" fill="#828396"/>
<path d="M1087.47 29.5938C1087.28 30.1208 1086.85 30.5303 1086.29 30.6608C1086.18 30.6854 1086.07 30.6423 1086 30.5551L1083.83 27.6878C1083.74 27.5669 1083.87 27.406 1084.01 27.4774L1087.34 29.2513C1087.46 29.3168 1087.52 29.4626 1087.47 29.5938Z" fill="#828396"/>
</g>
</g>
<path d="M1115.28 33V22.968H1125.52V23.848H1116.34V27.4H1124.67V28.28H1116.34V32.104H1125.52V33H1115.28ZM1131.83 33V23.848H1126.95V22.968H1137.71V23.848H1132.89V33H1131.83ZM1139.7 33V22.968H1140.76V27.464H1149.25V22.968H1150.29V33H1149.25V28.392H1140.76V33H1139.7ZM1152.86 33V22.968H1163.1V23.848H1153.91V27.4H1162.25V28.28H1153.91V32.104H1163.1V33H1152.86ZM1176.15 33H1174.96L1172.44 28.728H1166.15V33H1165.09V22.968H1173.75C1175 22.968 1176.02 23.944 1176.02 25.208V26.328C1176.02 27.8 1175.08 28.728 1173.64 28.728H1173.62L1176.15 33ZM1166.15 23.848V27.848H1173.52C1174.45 27.848 1175 27.208 1175 26.424V25.272C1175 24.392 1174.31 23.848 1173.52 23.848H1166.15ZM1178.55 33V22.968H1188.79V23.848H1179.6V27.4H1187.94V28.28H1179.6V32.104H1188.79V33H1178.55ZM1193.52 33C1191.95 33 1190.78 32.056 1190.78 30.408V22.968H1191.82V30.216C1191.82 31.448 1192.59 32.12 1193.69 32.12H1198.84C1200.09 32.12 1200.75 31.448 1200.75 30.216L1200.73 22.968H1201.74V30.408C1201.74 32.056 1200.62 33 1199.05 33H1193.52ZM1216.92 22.968H1217.85V33H1216.86V24.52L1211.54 30.792H1210.65L1205.29 24.472V33H1204.3V22.968H1205.27L1211.1 29.848L1216.92 22.968Z" fill="#C1D7D2"/>
<path d="M1244.58 22.1238C1244.69 22.0927 1244.81 22.0783 1244.93 22.0828C1245.6 22.1064 1246.12 22.6712 1246.09 23.3445V30.7536C1246.09 31.5082 1245.62 31.6722 1245.17 31.6638C1244.87 31.6426 1244.58 31.5864 1244.29 31.496C1246.14 34.0315 1249.06 35.5452 1252.17 35.5878L1254.87 32.8405L1256.47 34.6609C1260.46 32.7554 1261.71 29.2369 1261.99 27.8659C1260.53 29.3834 1258.92 30.9108 1257.83 29.8525C1257.83 29.8525 1257.77 24.197 1257.77 21.8779C1257.77 18.7624 1260.7 16.4357 1260.7 16.4357C1259.09 16.7249 1257.16 17.3018 1255.12 19.3348C1254.93 19.5208 1254.76 19.7159 1254.59 19.9208C1253.71 19.2422 1252.57 19.4441 1252.57 19.4441C1253.19 19.7842 1253.8 20.7802 1253.8 21.6046V29.7068C1253.8 29.7068 1252.46 30.9001 1251.43 30.9001C1250.95 30.9047 1250.51 30.6769 1250.23 30.289C1250.15 30.1805 1250.08 30.0621 1250.03 29.936V19.9315C1249.72 20.1865 1248.69 20.3907 1248.69 18.6622C1248.69 17.5842 1249.46 16.299 1250.82 15.5126C1249.44 15.7289 1247.62 16.2816 1245.76 17.8773C1243.56 19.8062 1242.3 22.6203 1242.33 25.571C1242.33 25.5703 1243.33 22.4131 1244.58 22.1238Z" fill="white"/>
<path d="M1252.31 41.9887C1261.31 41.988 1268.61 34.6032 1268.61 25.4936C1268.61 16.3841 1261.31 9 1252.31 9C1252.3 9 1252.3 9 1252.3 9C1243.3 9.00076 1236 16.3856 1236 25.4951C1236 34.6054 1243.3 41.9895 1252.31 41.9887ZM1252.3 9.65817C1260.95 9.65741 1267.95 16.7469 1267.96 25.4921V25.4928C1267.96 34.238 1260.95 41.3275 1252.3 41.3275C1243.66 41.3291 1236.65 34.2395 1236.65 25.4944C1236.65 16.7492 1243.66 9.65892 1252.3 9.65817Z" fill="white"/>
<path d="M1282.63 20.7155C1282.63 22.3406 1281.74 23.3929 1279.97 23.3929C1278.19 23.3929 1277.29 22.3406 1277.29 20.7155V16H1274.61V20.9286C1274.61 23.7659 1276.53 25.6307 1279.97 25.6307C1283.4 25.6307 1285.31 23.7659 1285.31 20.9286V16H1282.63V20.7155Z" fill="white"/>
<path d="M1298 16H1295.41V21.7012L1289.94 16H1287.1V25.3244H1289.69V19.1969L1295.64 25.3244H1298V16Z" fill="white"/>
<path d="M1310.57 19.1836C1310.57 17.0523 1308.74 16 1306.38 16H1299.92V25.3244H1302.59V22.3805H1305.3L1307.74 25.3244H1310.86L1308.15 22.1541C1309.59 21.7278 1310.57 20.7421 1310.57 19.1836ZM1306.18 20.4091H1302.58V18.0647H1306.18C1307.14 18.0647 1307.84 18.3311 1307.84 19.2369C1307.84 20.1427 1307.14 20.4091 1306.18 20.4091Z" fill="white"/>
<path d="M1321.83 23.2464H1314.64V21.5946H1320.45V19.6099H1314.64V18.078H1321.68V16H1311.99V25.3244H1321.83V23.2464Z" fill="white"/>
<path d="M1327.19 16L1322.42 25.3244H1325.24L1326.11 23.5394H1331.16L1332.03 25.3244H1334.89L1330.12 16H1327.19ZM1327.03 21.6079L1328.64 18.3045L1330.23 21.6079H1327.03Z" fill="white"/>
<path d="M1338.41 23.1398V16H1335.72V25.3244H1344.61V23.1398H1338.41Z" fill="white"/>
<path d="M1290.27 32.1219H1294.1V30.8112H1290.27V29.8001H1294.92V28.4294H1288.52V34.5822H1295.01V33.2115H1290.27V32.1219Z" fill="white"/>
<path d="M1301.48 32.1912L1297.88 28.4294H1296V34.5822H1297.71V30.5394L1301.64 34.5822H1303.2V28.4294H1301.48V32.1912Z" fill="white"/>
<path d="M1307.98 32.2792H1310V32.8333C1309.57 33.2289 1308.98 33.3781 1308.24 33.3781C1306.76 33.3781 1305.92 32.7187 1305.92 31.5052C1305.92 30.3011 1306.73 29.6417 1308.21 29.6417C1309.03 29.6417 1309.57 29.8521 1310.1 30.3277L1311.39 29.3606C1310.76 28.7625 1309.67 28.2271 1308.17 28.2271C1305.67 28.2271 1304.13 29.4232 1304.13 31.5066C1304.13 33.5899 1305.67 34.7861 1308.17 34.7861C1309.79 34.7861 1310.99 34.2413 1311.64 33.4234V31.023H1307.99V32.2792H1307.98Z" fill="white"/>
<path d="M1314.47 28.4294H1312.7V34.5835H1314.47V28.4294Z" fill="white"/>
<path d="M1321.22 32.1912L1317.61 28.4294H1315.73V34.5822H1317.44V30.5394L1321.37 34.5822H1322.93V28.4294H1321.22V32.1912Z" fill="white"/>
<path d="M1325.95 32.1219H1329.78V30.8112H1325.95V29.8001H1330.6V28.4294H1324.21V34.5822H1330.7V33.2115H1325.95V32.1219Z" fill="white"/>
<circle cx="689" cy="25" r="3" fill="#C1D7D2"/>
<circle cx="1049" cy="25" r="3" fill="#C1D7D2"/>
<line x1="689" y1="24.75" x2="1049" y2="24.75" stroke="#C1D7D2" stroke-width="0.5"/>
<path d="M1059 25L1054.5 27.5981L1054.5 22.4019L1059 25Z" fill="#C1D7D2"/>
<circle cx="184" cy="25" r="3" fill="#C1D7D2"/>
<circle cx="624" cy="25" r="3" fill="#C1D7D2"/>
<line x1="184" y1="24.75" x2="624" y2="24.75" stroke="#C1D7D2" stroke-width="0.5"/>
<path d="M634 25L629.5 27.5981L629.5 22.4019L634 25Z" fill="#C1D7D2"/>
<defs>
<filter id="filter0_b_2133_564" x="625" y="-22" width="70" height="94" filterUnits="userSpaceOnUse" color-interpolation-filters="sRGB">
<feFlood flood-opacity="0" result="BackgroundImageFix"/>
<feGaussianBlur in="BackgroundImageFix" stdDeviation="11"/>
<feComposite in2="SourceAlpha" operator="in" result="effect1_backgroundBlur_2133_564"/>
<feBlend mode="normal" in="SourceGraphic" in2="effect1_backgroundBlur_2133_564" result="shape"/>
</filter>
<clipPath id="clip0_2133_564">
<rect width="40" height="40" fill="white" transform="translate(0 5)"/>
</clipPath>
<clipPath id="clip1_2133_564">
<rect width="32" height="32" fill="white" transform="translate(1072 9)"/>
</clipPath>
<clipPath id="clip2_2133_564">
<rect width="16" height="16" fill="white" transform="translate(1080 17)"/>
</clipPath>
</defs>
</svg>
